<?xml version="1.0" encoding="UTF-8" standalone="no"?>
<!-- Created with Inkscape (http://www.inkscape.org/) -->

<svg
   xmlns:dc="http://purl.org/dc/elements/1.1/"
   xmlns:cc="http://creativecommons.org/ns#"
   xmlns:rdf="http://www.w3.org/1999/02/22-rdf-syntax-ns#"
   xmlns:svg="http://www.w3.org/2000/svg"
   xmlns="http://www.w3.org/2000/svg"
   xmlns:sodipodi="http://sodipodi.sourceforge.net/DTD/sodipodi-0.dtd"
   xmlns:inkscape="http://www.inkscape.org/namespaces/inkscape"
   width="444.4671"
   height="68.690369"
   id="svg2"
   version="1.1"
   inkscape:version="0.48.4 r9939"
   sodipodi:docname="logo.svg"
   inkscape:export-filename="E:\Lucru\Personal\FlatMessage\book\chapter-1\img\logo.png"
   inkscape:export-xdpi="182.40474"
   inkscape:export-ydpi="182.40474">
  <defs
     id="defs4">
    <filter
       id="filter3410"
       y="-0.2"
       width="1.2"
       height="1.4"
       x="-0.1"
       inkscape:label="Fire"
       inkscape:menu="Protrusions"
       inkscape:menu-tooltip="Edges of object are on fire"
       color-interpolation-filters="sRGB">
      <feMorphology
         id="feMorphology3412"
         result="result1"
         radius="1"
         operator="erode" />
      <feTurbulence
         id="feTurbulence3414"
         baseFrequency="0.09 0.028"
         numOctaves="1" />
      <feColorMatrix
         id="feColorMatrix3416"
         result="result2"
         values="2 0 0 0 0 0 2 0 0 0 0 0 0 0 0 0 0 0 1 0" />
      <feDisplacementMap
         id="feDisplacementMap3418"
         in2="result2"
         result="result4"
         scale="10.319410319410318"
         yChannelSelector="G"
         xChannelSelector="R"
         in="result1" />
      <feFlood
         id="feFlood3420"
         result="result3"
         flood-opacity="1"
         flood-color="rgb(255,159,54)" />
      <feMorphology
         id="feMorphology3422"
         radius="3.8"
         result="result7"
         in="result4" />
      <feGaussianBlur
         id="feGaussianBlur3424"
         result="result7"
         in="result7"
         stdDeviation="2.4" />
      <feComposite
         id="feComposite3426"
         in2="result4"
         result="result5"
         in="result3"
         operator="in" />
      <feComposite
         id="feComposite3428"
         in2="result7"
         operator="out" />
      <feOffset
         id="feOffset3430"
         result="result6"
         dy="-7"
         dx="-4.5" />
      <feGaussianBlur
         id="feGaussianBlur3432"
         result="result7"
         stdDeviation="4.8" />
      <feComposite
         id="feComposite3434"
         in2="result6"
         in="SourceGraphic"
         result="result8" />
      <feComposite
         id="feComposite3436"
         in2="result7" />
    </filter>
  </defs>
  <sodipodi:namedview
     id="base"
     pagecolor="#ffffff"
     bordercolor="#666666"
     borderopacity="1.0"
     inkscape:pageopacity="0.0"
     inkscape:pageshadow="2"
     inkscape:zoom="2.8"
     inkscape:cx="249.70762"
     inkscape:cy="-16.222342"
     inkscape:document-units="px"
     inkscape:current-layer="layer1"
     showgrid="false"
     inkscape:window-width="1536"
     inkscape:window-height="889"
     inkscape:window-x="-8"
     inkscape:window-y="-8"
     inkscape:window-maximized="1"
     fit-margin-top="0"
     fit-margin-left="0"
     fit-margin-right="0"
     fit-margin-bottom="0" />
  <metadata
     id="metadata7">
    <rdf:RDF>
      <cc:Work
         rdf:about="">
        <dc:format>image/svg+xml</dc:format>
        <dc:type
           rdf:resource="http://purl.org/dc/dcmitype/StillImage" />
        <dc:title></dc:title>
      </cc:Work>
    </rdf:RDF>
  </metadata>
  <g
     inkscape:label="Layer 1"
     inkscape:groupmode="layer"
     id="layer1"
     transform="translate(1151.5739,315.88943)">
    <rect
       style="fill:#000000;fill-opacity:1;stroke:none"
       id="rect3021"
       width="444.4671"
       height="68.690369"
       x="-1151.5739"
       y="-315.88943"
       rx="0.9400745"
       ry="0.32509175" />
    <g
       transform="translate(-306.54069,39.901025)"
       style="font-size:40px;font-style:normal;font-variant:normal;font-weight:bold;font-stretch:normal;line-height:125%;letter-spacing:0px;word-spacing:0px;fill:#ffffff;fill-opacity:1;stroke:none;font-family:Magneto;-inkscape-font-specification:Magneto Bold;filter:url(#filter3410)"
       id="flowRoot2985">
      <path
         d="m -716.60156,-344.13357 -3.00781,4.92187 -6.91407,0 -3.24218,9.27735 6.28906,0 c -0.18233,2.0573 -1.42581,3.09897 -3.73047,3.125 l -3.67188,0.0391 -1.52343,4.31641 c -1.35419,3.86719 -4.03648,5.80078 -8.04688,5.80078 l -101.67187,0 c 0.57291,-1.45833 1.07421,-2.49349 1.5039,-3.10547 0.75521,-1.08073 1.64062,-1.62109 2.65625,-1.6211 0.15625,1e-5 0.31901,0.013 0.48828,0.0391 l 97.1211,1.44531 6.75781,-19.31641 -11.17187,0 c -1.6797,3e-5 -3.19012,0.48831 -4.53125,1.46485 -1.45834,1.06773 -2.18751,2.40887 -2.1875,4.02343 -10e-6,1.11981 0.3776,1.75783 1.13281,1.91407 0.24739,-1.21092 0.88541,-2.18097 1.91406,-2.91016 0.96353,-0.7031 2.0703,-1.05467 3.32031,-1.05469 1.35416,2e-5 2.52603,0.41669 3.51563,1.25 1.06769,0.88544 1.60155,2.03127 1.60156,3.4375 -10e-6,1.56252 -0.63804,2.77996 -1.91406,3.65235 -1.09376,0.75522 -2.45444,1.13282 -4.08203,1.13281 -2.51303,10e-6 -4.60287,-0.58593 -6.26953,-1.75781 -1.84896,-1.31509 -2.77344,-3.12499 -2.77344,-5.42969 0,-3.4505 1.36718,-6.14581 4.10156,-8.08594 2.40885,-1.7057 5.40364,-2.55856 8.98438,-2.55859 z"
         style="fill:#ffffff;font-family:Magneto;-inkscape-font-specification:Magneto Bold"
         id="path3026"
         inkscape:connector-curvature="0"
         sodipodi:nodetypes="ccccccccscccccccccccccccccscsc" />
      <path
         d="m -707.07031,-319.7781 c -0.32554,1.14583 -1.07424,1.99219 -2.2461,2.53906 -0.82032,0.39063 -1.69923,0.58594 -2.63671,0.58594 l -7.51954,0 c -1.92708,0 -2.89062,-0.65755 -2.89062,-1.97266 0,-0.33854 0.0716,-0.72265 0.21484,-1.15234 l 7.2461,-20.42969 6.91406,0 -7.28516,20.42969 z"
         style="fill:#ffffff;font-family:Magneto;-inkscape-font-specification:Magneto Bold"
         id="path3028"
         inkscape:connector-curvature="0" />
      <path
         d="m -681.95312,-319.7781 c -0.62503,2.08333 -2.22008,3.125 -4.78516,3.125 l -7.40234,0 c -2.10939,0 -3.16408,-0.67709 -3.16407,-2.03125 -1.41928,1.61458 -3.16407,2.42187 -5.23437,2.42187 -1.52344,0 -2.76042,-0.46875 -3.71094,-1.40625 -0.95052,-0.9375 -1.42578,-2.16145 -1.42578,-3.67187 0,-2.72135 1.04166,-4.86978 3.125,-6.44532 1.88802,-1.43227 4.22525,-2.14842 7.01172,-2.14843 l 11.15234,0 -3.67187,10.15625 z m -12.59766,-7.03125 -4.31641,0 -1.36718,4.55078 c -0.0781,0.28646 -0.1172,0.54688 -0.11719,0.78125 -1e-5,1.13281 1.10676,1.69922 3.32031,1.69922 z"
         style="fill:#ffffff;font-family:Magneto;-inkscape-font-specification:Magneto Bold"
         id="path3030"
         inkscape:connector-curvature="0" />
      <path
         d="m -664.58984,-319.7781 c -0.612,2.08333 -2.2396,3.125 -4.88282,3.125 l -9.96093,0 c -1.92709,0 -2.89063,-0.67709 -2.89063,-2.03125 0,-0.33854 0.0716,-0.70312 0.21485,-1.09375 l 2.48046,-7.03125 -3.20312,0 1.23047,-3.125 c 2.27864,-0.58593 3.97135,-1.33462 5.07812,-2.2461 1.25,-1.02863 2.58463,-2.8906 4.00391,-5.58593 l 3.80859,0 -2.7539,7.83203 5.03906,0 c -0.80731,2.08334 -2.44793,3.12501 -4.92188,3.125 l -1.28906,0 -2.4414,7.03125 z"
         style="fill:#ffffff;font-family:Magneto;-inkscape-font-specification:Magneto Bold"
         id="path3032"
         inkscape:connector-curvature="0" />
      <path
         d="m -619.41406,-319.7781 c -0.54692,2.08333 -2.35682,3.125 -5.42969,3.125 l -7.01172,0 c -2.18753,0 -3.28128,-0.63151 -3.28125,-1.89453 -3e-5,-0.44271 0.13669,-1.02214 0.41016,-1.73829 l 3.24219,-8.4375 -9.6875,10.625 c -1.04169,1.15886 -2.18102,1.73829 -3.41797,1.73829 -0.2344,0 -0.48179,-0.0195 -0.74219,-0.0586 -1.48439,-0.16927 -2.22658,-0.91146 -2.22656,-2.22656 -2e-5,-0.50781 0.11717,-1.05468 0.35156,-1.64063 l 4.80469,-12.40234 -12.05078,14.55078 c -0.80731,0.98959 -1.9922,1.48438 -3.55469,1.48438 l -3.96485,0 7.89063,-22.5586 -10.83984,0 2.94921,-4.92187 13.04688,0 c 1.79686,3e-5 2.69529,0.65758 2.69531,1.97265 -2e-5,0.50784 -0.12371,1.11982 -0.37109,1.83594 l -4.19922,12.10938 8.39844,-9.51172 c 1.06768,-1.22394 1.88799,-2.01821 2.46093,-2.38281 0.9505,-0.59894 2.18097,-0.89842 3.69141,-0.89844 0.42966,2e-5 0.87888,0.14976 1.34766,0.44922 0.71611,0.46877 1.07418,1.16538 1.07422,2.08984 -4e-5,0.57294 -0.14326,1.21747 -0.42969,1.93359 l -3.78906,9.84375 7.51953,-7.55859 c 1.06767,-1.06769 1.7773,-1.71222 2.1289,-1.93359 0.61194,-0.35155 1.49085,-0.52082 2.63672,-0.50782 0.45569,3e-5 0.93746,0.1693 1.44531,0.50782 0.78121,0.50783 1.17184,1.25002 1.17188,2.22656 -4e-5,0.55991 -0.13025,1.1784 -0.39063,1.85547 l -4.66796,12.32422 z"
         style="fill:#ffffff;font-family:Magneto;-inkscape-font-specification:Magneto Bold"
         id="path3034"
         inkscape:connector-curvature="0" />
      <path
         d="m -594.90234,-319.7781 c -0.27347,1.0026 -0.89846,1.79036 -1.875,2.36328 -0.87242,0.50781 -1.86851,0.76172 -2.98828,0.76172 l -10.87891,0 c -6.32813,0 -9.49219,-1.90755 -9.49219,-5.72266 0,-2.44791 1.08073,-4.36848 3.24219,-5.76172 1.86197,-1.1979 4.07551,-1.79686 6.64062,-1.79687 l 2.83204,0 c 1.65363,10e-6 3.10545,0.25392 4.35546,0.76172 1.66665,0.67709 2.53905,1.70574 2.61719,3.08593 0.0651,1.39324 -0.60549,2.55209 -2.01172,3.47657 l -6.46484,0 2.10937,-4.19922 -4.12109,0 -1.60156,4.70703 c -0.0912,0.27344 -0.13673,0.52084 -0.13672,0.74219 -10e-6,1.05469 0.84635,1.58203 2.53906,1.58203 z"
         style="fill:#ffffff;font-family:Magneto;-inkscape-font-specification:Magneto Bold"
         id="path3036"
         inkscape:connector-curvature="0" />
      <path
         d="m -571.40625,-319.7781 c -0.0521,0.8724 -0.55015,1.61133 -1.49414,2.21679 -0.94403,0.60547 -1.97593,0.90821 -3.0957,0.90821 l -14.84375,0 c -2.85157,0 -4.27735,-0.8724 -4.27735,-2.61719 0,-0.15625 0.013,-0.32552 0.0391,-0.50781 0.10416,-0.78125 0.52083,-1.38672 1.25,-1.81641 0.62499,-0.3776 1.34114,-0.55989 2.14843,-0.54687 1.40625,0.0391 3.3138,0.8138 5.72266,2.32421 0.69009,-0.85937 1.03514,-1.73176 1.03516,-2.61718 -2e-5,-0.4427 -0.27996,-1.45182 -0.83985,-3.02735 l -2.20703,2.01172 -3.90625,0 5.19531,-4.80469 c -0.23438,-0.40363 -0.39714,-0.73566 -0.48828,-0.99609 -0.16928,-0.48176 -0.26042,-1.02863 -0.27344,-1.64062 l 4.80469,-5.11719 c 2.16145,0.3646 3.24217,1.34767 3.24219,2.94922 -2e-5,0.93751 -0.27996,1.8034 -0.83984,2.59765 0.48175,1.27606 0.97003,2.5521 1.46484,3.82813 0.59894,1.64063 0.89842,2.96876 0.89844,3.98437 -2e-5,1.1198 -0.44273,2.07683 -1.32813,2.8711 z"
         style="fill:#ffffff;font-family:Magneto;-inkscape-font-specification:Magneto Bold"
         id="path3038"
         inkscape:connector-curvature="0" />
      <path
         d="m -547.8125,-319.7781 c -0.0521,0.8724 -0.55015,1.61133 -1.49414,2.21679 -0.94403,0.60547 -1.97593,0.90821 -3.0957,0.90821 l -14.84375,0 c -2.85157,0 -4.27735,-0.8724 -4.27735,-2.61719 0,-0.15625 0.013,-0.32552 0.0391,-0.50781 0.10416,-0.78125 0.52083,-1.38672 1.25,-1.81641 0.62499,-0.3776 1.34114,-0.55989 2.14843,-0.54687 1.40625,0.0391 3.3138,0.8138 5.72266,2.32421 0.69009,-0.85937 1.03514,-1.73176 1.03516,-2.61718 -2e-5,-0.4427 -0.27996,-1.45182 -0.83985,-3.02735 l -2.20703,2.01172 -3.90625,0 5.19531,-4.80469 c -0.23438,-0.40363 -0.39714,-0.73566 -0.48828,-0.99609 -0.16928,-0.48176 -0.26042,-1.02863 -0.27344,-1.64062 l 4.80469,-5.11719 c 2.16145,0.3646 3.24217,1.34767 3.24219,2.94922 -2e-5,0.93751 -0.27996,1.8034 -0.83984,2.59765 0.48175,1.27606 0.97003,2.5521 1.46484,3.82813 0.59894,1.64063 0.89842,2.96876 0.89844,3.98437 -2e-5,1.1198 -0.44273,2.07683 -1.32813,2.8711 z"
         style="fill:#ffffff;font-family:Magneto;-inkscape-font-specification:Magneto Bold"
         id="path3040"
         inkscape:connector-curvature="0" />
      <path
         d="m -522.57812,-319.7781 c -0.62503,2.08333 -2.22008,3.125 -4.78516,3.125 l -7.40234,0 c -2.10939,0 -3.16408,-0.67709 -3.16407,-2.03125 -1.41928,1.61458 -3.16407,2.42187 -5.23437,2.42187 -1.52344,0 -2.76042,-0.46875 -3.71094,-1.40625 -0.95052,-0.9375 -1.42578,-2.16145 -1.42578,-3.67187 0,-2.72135 1.04166,-4.86978 3.125,-6.44532 1.88802,-1.43227 4.22525,-2.14842 7.01172,-2.14843 l 11.15234,0 -3.67187,10.15625 z m -12.59766,-7.03125 -4.31641,0 -1.36718,4.55078 c -0.0781,0.28646 -0.1172,0.54688 -0.11719,0.78125 -1e-5,1.13281 1.10676,1.69922 3.32031,1.69922 z"
         style="fill:#ffffff;font-family:Magneto;-inkscape-font-specification:Magneto Bold"
         id="path3042"
         inkscape:connector-curvature="0" />
      <path
         d="m -497.22656,-319.7781 c -0.59899,2.08333 -2.53258,3.125 -5.80078,3.125 l -3.47657,0 c -1.15887,3.15104 -2.31121,5.42968 -3.45703,6.83593 -1.6797,2.05729 -3.8086,3.08593 -6.38672,3.08594 -1.45833,-1e-5 -2.62044,-0.40691 -3.48632,-1.2207 -0.86589,-0.81381 -1.29883,-1.94337 -1.29883,-3.38867 0,-2.82553 0.82682,-4.64844 2.48047,-5.46875 -1.22396,-0.28646 -2.23308,-0.85287 -3.02735,-1.69922 -0.92448,-0.96354 -1.38672,-2.1289 -1.38672,-3.4961 0,-0.53384 0.0846,-1.09374 0.25391,-1.67968 0.5599,-2.12239 1.79036,-3.72395 3.69141,-4.80469 1.66666,-0.96353 3.67186,-1.4453 6.01562,-1.44531 l 11.17188,0 -3.57422,10.15625 z m -12.8711,-7.03125 -4.16015,0 -1.5625,4.96093 c -0.0912,0.29949 -0.13673,0.57293 -0.13672,0.82032 -10e-6,1.10677 0.80728,1.66016 2.42187,1.66015 0.10416,1e-5 0.25716,-0.007 0.45899,-0.0195 0.20181,-0.013 0.35481,-0.0195 0.45898,-0.0195 z m -3.4375,10.68359 c -0.84636,0 -1.63737,0.48503 -2.37304,1.45508 -0.73569,0.97005 -1.10352,1.93684 -1.10352,2.90039 0,0.85937 0.37109,1.54947 1.11328,2.07031 z"
         style="fill:#ffffff;font-family:Magneto;-inkscape-font-specification:Magneto Bold"
         id="path3044"
         inkscape:connector-curvature="0" />
      <path
         d="m -406.87109,-319.7781 c -0.27347,1.0026 -0.89846,1.79036 -1.875,2.36328 -0.87242,0.50781 -1.86851,0.76172 -2.98828,0.76172 l -76.87891,0 c -6.32813,0 -9.49219,-1.90755 -9.49219,-5.72266 0,-2.44791 1.08073,-4.36848 3.24219,-5.76172 1.86197,-1.1979 4.07551,-1.79686 6.64062,-1.79687 l 2.83204,0 c 1.65363,10e-6 3.10545,0.25392 4.35546,0.76172 1.66665,0.67709 2.53905,1.70574 2.61719,3.08593 0.0651,1.39324 -0.60549,2.55209 -2.01172,3.47657 l -6.46484,0 2.10937,-4.19922 -4.12109,0 -1.60156,4.70703 c -0.0912,0.27344 -0.13673,0.52084 -0.13672,0.74219 -1e-5,1.05469 0.84635,1.58203 2.53906,1.58203 z"
         style="fill:#ffffff;font-family:Magneto;-inkscape-font-specification:Magneto Bold"
         id="path3046"
         inkscape:connector-curvature="0"
         sodipodi:nodetypes="ccssscssccccccccsc" />
    </g>
    <flowRoot
       xml:space="preserve"
       id="flowRoot3438"
       style="font-size:40px;font-style:normal;font-weight:normal;line-height:125%;letter-spacing:0px;word-spacing:0px;fill:#000000;fill-opacity:1;stroke:none;font-family:Sans"
       transform="translate(-772.55493,-397.41592)"><flowRegion
         id="flowRegion3440"><rect
           id="rect3442"
           width="1036.4165"
           height="155.56349"
           x="-286.88333"
           y="132.32999" /></flowRegion><flowPara
         id="flowPara3444"
         style="font-size:14px;font-style:oblique;font-variant:normal;font-weight:normal;font-stretch:normal;fill:#cccccc;font-family:Segoe UI;-inkscape-font-specification:Segoe UI Oblique">A really fast <flowSpan
   style="font-size:14px;font-weight:bold"
   id="flowSpan3450">schema-less</flowSpan>, <flowSpan
   style="font-size:14px;font-weight:bold"
   id="flowSpan3452">zero-copy</flowSpan> serialization library</flowPara></flowRoot>  </g>
</svg>
